# xmcd
#
# Track frame offsets:
#	150
#	22067
#	41477
#	53725
#	73689
#	93731
#	109958
#	126698
#	140978
#	157855
#	175787
#	195627
#	214440
#	238898
#
# Disc length: 3401 seconds
#
# Revision: 1
# Processed by: cddbd v1.5.2PL0 Copyright (c) Steve Scherf et al.
# Submitted via: audiograbber 1.83.01
#
DISCID=dd0d470e
DTITLE=Colin Linden - From The Water
DYEAR=2009
DGENRE=Blues
TTITLE0=From The Water
TTITLE1=Mon Couer Est Dans Tes Mains
TTITLE2=Built Right On The Ground
TTITLE3=Smoke 'Em All
TTITLE4=Trouble Only Comes In Threes
TTITLE5=Between The Darkness And The Light Of Day
TTITLE6=I Have Seen A Miracle
TTITLE7=Devilment
TTITLE8=John Lennon In New Orleans
TTITLE9=Later Than You Think
TTITLE10=The Price You Pay
TTITLE11=Sinking Down Slow
TTITLE12=The Heaven Me
TTITLE13=God Will Always Remember Your Prayers
EXTD=
EXTT0=
EXTT1=
EXTT2=
EXTT3=
EXTT4=
EXTT5=
EXTT6=
EXTT7=
EXTT8=
EXTT9=
EXTT10=
EXTT11=
EXTT12=
EXTT13=
PLAYORDER=
